<svg xmlns="http://www.w3.org/2000/svg" viewBox="0 0 57.55 68.55"><defs><style>.cls-1{fill:#eaeff9;}.cls-2{fill:none;stroke:#fff;stroke-miterlimit:10;stroke-width:2px;}.cls-3{fill:#ed5851;}.cls-4{font-size:13.28px;fill:#fff;font-family:BrandonGrotesque-Bold, Brandon Grotesque;font-weight:700;}</style></defs><g id="Ebene_2" data-name="Ebene 2"><g id="NEW"><g id="Details_Export"><g id="Dokument"><path class="cls-1" d="M57.55,14.67v43a6,6,0,0,1-6,6h-36a6,6,0,0,1-6-6V6.24a6,6,0,0,1,6-6H40.66l.16.12,15.84,13A2.84,2.84,0,0,1,57.55,14.67Z"/><g id="Dokument-2" data-name="Dokument"><path id="Eck" class="cls-2" d="M57.55,14.67H43.09a2.82,2.82,0,0,1-2.82-2.82V0"/></g></g><path id="Pfeil" class="cls-3" d="M49.05,58.21h-4V41.55a.29.29,0,0,0-.28-.29H33.23a.29.29,0,0,0-.29.29V58.21H29a.14.14,0,0,0-.1.24l10,10a.13.13,0,0,0,.2,0l10-10A.14.14,0,0,0,49.05,58.21Z"/><rect id="PDF" class="cls-3" y="13.85" width="35.31" height="15.54" rx="2"/><text class="cls-4" transform="translate(3.86 26.31)">PDF</text></g></g></g></svg>