<svg xmlns="http://www.w3.org/2000/svg" viewBox="0 0 57.49 68.49"><defs><style>.cls-1{fill:#eaeff9;}.cls-2{fill:none;stroke:#fff;stroke-miterlimit:10;stroke-width:2px;}.cls-3{fill:#32e1ad;}.cls-4{font-size:13.22px;fill:#fff;font-family:BrandonGrotesque-Bold, Brandon Grotesque;font-weight:700;}</style></defs><g id="Ebene_2" data-name="Ebene 2"><g id="NEW"><g id="Details_Export"><g id="Dokument"><path class="cls-1" d="M57.49,14.67v43a6,6,0,0,1-6,6h-36a6,6,0,0,1-6-6V6.24a6,6,0,0,1,6-6H40.6l.16.12,15.84,13A2.84,2.84,0,0,1,57.49,14.67Z"/><g id="Dokument-2" data-name="Dokument"><path id="Eck" class="cls-2" d="M57.48,14.67H43a2.83,2.83,0,0,1-2.83-2.82V0"/></g></g><path id="Pfeil" class="cls-3" d="M48.84,58.19H44.9V41.6a.27.27,0,0,0-.28-.28H33.09a.27.27,0,0,0-.28.28V58.19h-4a.14.14,0,0,0-.1.24l10,10a.12.12,0,0,0,.19,0l10-10A.14.14,0,0,0,48.84,58.19Z"/><rect id="PDF" class="cls-3" y="14.01" width="35.16" height="15.47" rx="2"/><text class="cls-4" transform="translate(2.8 26.42)">XLSX</text></g></g></g></svg>